<svg
  width="500"
  height="500"
  viewBox="120 120 260 260"
  xmlns="http://www.w3.org/2000/svg"
>
  <defs>
    <linearGradient id="auroraSpace" x1="0%" y1="0%" x2="100%" y2="100%">
      <stop offset="0%" stop-color="#14F1D9"/>
      <stop offset="20%" stop-color="#22D3EE"/>
      <stop offset="30%" stop-color="#3B82F6"/>
      <stop offset="40%" stop-color="#8B5CF6"/>
      <stop offset="70%" stop-color="#EC4899"/>
      <stop offset="100%" stop-color="#EC4899"/>
    </linearGradient>
  </defs>

  <path
    style="fill:url(#auroraSpace)"
    d="m 338.24119,376.75 c -1.73747,-1.95742 -5.39631,-8.23968 -38.87576,-66.75 -25.31446,-44.24078 -28.71221,-50.52817 -28.71221,-53.13059 0,-1.83007 3.70501,-8.60438 23.67427,-43.28644 13.46595,-23.38731 15.31924,-25.55053 19.09023,-22.28272 1.07881,0.93486 11.2496,17.89975 22.60175,37.69975 11.35215,19.8 25.83224,45 32.17798,56 15.98879,27.7157 14.84304,24.96482 12.44422,29.87798 -3.19558,6.54504 -34.18657,59.93574 -35.91402,61.87202 -0.8587,0.9625 -2.31993,1.75 -3.24718,1.75 -0.92725,0 -2.38493,-0.7875 -3.23928,-1.75 z 
      M 155.27962,329.73438 c -0.63371,-0.40425 -8.87892,-14.23486 -18.32269,-30.73469 -9.44376,-16.49983 -17.5667,-30.42719 -18.05096,-30.94969 -1.68097,-1.81369 -0.99014,-7.4208 1.04907,-8.51482 2.79251,-1.49815 132.79487,-1.42378 136.08257,0.0779 1.62698,0.7431 5.18658,5.97776 10.71012,15.75 4.55027,8.05033 12.67734,22.23791 18.06016,31.52797 9.64816,16.65151 10.94872,20.04437 8.58986,22.40899 -1.34947,1.35275 -136.01455,1.77627 -138.11813,0.43438 z 
      m 29.82081,-81.88234 c -0.69212,-0.28949 -1.72199,-1.39469 -2.2886,-2.456 -1.24214,-2.32662 -0.11853,-4.68734 13.03937,-27.39604 9.02358,-15.57344 12.08027,-20.86445 39.86222,-69 7.30109,-12.65 14.18745,-24.0125 15.30304,-25.25 l 2.02834,-2.25 h 37.53414 c 27.86312,0 37.84257,0.30919 38.73121,1.2 2.39386,2.39969 1.04112,6.22396 -7.12013,20.12912 -8.94463,15.23986 -30.61068,52.66206 -47.96776,82.85123 -5.90708,10.2742 -11.64224,19.4992 -12.74479,20.5 -1.85321,1.68219 -4.76627,1.83394 -38.56165,2.00884 -20.10635,0.10405 -37.12328,-0.0477 -37.81539,-0.33715 z"
  />
</svg>